<svg width="1440" height="970" viewBox="0 0 1440 970" fill="none" xmlns="http://www.w3.org/2000/svg">
<g filter="url(#filter0_d)">
<path d="M-3 281.451H202.573V192.809H348.769V281.451H447.563V151.763H593.26V238.124H669.602V37.8056H793.843V192.809H952.513V127.999H1073.26V172.286H1197.01V0H1340.21V151.763L1440 151.763V866.951L1365.16 866.951V962H1268.86V824.929H1197.01V918.477H1091.72V776.904H990.934V866.951H891.64V761.396H771.889V927.982H669.602V838.936H551.347V712.87H434.59V946.492H332.303V761.396H263.945V890.463H114.755V732.881H-3V281.451Z" fill="#2C3544"/>
</g>
<defs>
<filter id="filter0_d" x="-7" y="0" width="1451" height="970" filterUnits="userSpaceOnUse" color-interpolation-filters="sRGB">
<feFlood flood-opacity="0" result="BackgroundImageFix"/>
<feColorMatrix in="SourceAlpha" type="matrix" values="0 0 0 0 0 0 0 0 0 0 0 0 0 0 0 0 0 0 127 0"/>
<feOffset dy="4"/>
<feGaussianBlur stdDeviation="2"/>
<feColorMatrix type="matrix" values="0 0 0 0 0 0 0 0 0 0 0 0 0 0 0 0 0 0 0.25 0"/>
<feBlend mode="normal" in2="BackgroundImageFix" result="effect1_dropShadow"/>
<feBlend mode="normal" in="SourceGraphic" in2="effect1_dropShadow" result="shape"/>
</filter>
</defs>
</svg>
